<?xml version="1.0" encoding="utf-8"?>
<!-- Generator: Adobe Illustrator 27.5.0, SVG Export Plug-In . SVG Version: 6.00 Build 0)  -->
<svg version="1.1" id="Layer_1" xmlns="http://www.w3.org/2000/svg" xmlns:xlink="http://www.w3.org/1999/xlink" x="0px" y="0px"
	 viewBox="700 500 2400 2400" style="enable-background:new 0 0 4000 4000;" xml:space="preserve">
<g>
	<g>
		<defs>
			<path id="SVGID_1_" d="M2218.779,1741.408c174.577,100.791,281.55,287.597,280.124,489.176
				c106.928-163.675,135.65-366.382,78.404-553.32c-57.246-186.938-194.55-338.803-374.793-414.538
				c-275.65-106.765-588.655-28.778-781.986,194.839c-193.332,223.616-225.271,544.605-79.794,801.934
				c145.476,257.329,436.977,395.467,728.261,345.112c-206.889,7-398.358-108.94-488.03-295.516
				C1366.862,1863.627,1787.261,1492.27,2218.779,1741.408"/>
		</defs>
		<clipPath id="SVGID_00000159467682430362961370000012634781616444783508_">
			<use xlink:href="#SVGID_1_"  style="overflow:visible;"/>
		</clipPath>
		
			<linearGradient id="SVGID_00000093148664973852861460000014483461211576471455_" gradientUnits="userSpaceOnUse" x1="1374.5232" y1="2268.9063" x2="2418.9561" y2="1566.4545">
			<stop  offset="0" style="stop-color:#007B70"/>
			<stop  offset="1" style="stop-color:#AFF022"/>
		</linearGradient>
		
			<rect x="1195.256" y="1155.961" style="clip-path:url(#SVGID_00000159467682430362961370000012634781616444783508_);fill:url(#SVGID_00000093148664973852861460000014483461211576471455_);" width="1439.297" height="1499.005"/>
	</g>
	<defs>
		
			<filter id="Adobe_OpacityMaskFilter" filterUnits="userSpaceOnUse" x="1250.131" y="1215.463" width="1356.059" height="1331.974">
			<feColorMatrix  type="matrix" values="1 0 0 0 0  0 1 0 0 0  0 0 1 0 0  0 0 0 1 0"/>
		</filter>
	</defs>
	
		<mask maskUnits="userSpaceOnUse" x="1250.131" y="1215.463" width="1356.059" height="1331.974" id="SVGID_00000077297260830703093080000009595703715103921048_">
		<g style="filter:url(#Adobe_OpacityMaskFilter);">
			
				<linearGradient id="SVGID_00000016765637988612838720000017794614212741831816_" gradientUnits="userSpaceOnUse" x1="483.378" y1="4752.8633" x2="-1225.6923" y2="5390.4277" gradientTransform="matrix(1 0 0 1 2779.6694 -3369.3899)">
				<stop  offset="0" style="stop-color:#FFFFFF"/>
				<stop  offset="1" style="stop-color:#000000"/>
			</linearGradient>
			
				<rect x="1250.131" y="1215.462" style="fill:url(#SVGID_00000016765637988612838720000017794614212741831816_);" width="1356.059" height="1331.975"/>
		</g>
	</mask>
	
		<path style="mask:url(#SVGID_00000077297260830703093080000009595703715103921048_);fill-rule:evenodd;clip-rule:evenodd;fill:#FFF000;" d="
		M2169.044,1512.675c281.014,115.97,424.91,429.148,329.858,717.909c106.928-163.675,135.65-366.382,78.404-553.32
		c-57.246-186.938-194.55-338.803-374.793-414.538c-275.65-106.765-588.655-28.778-781.986,194.839
		c-193.332,223.616-225.271,544.605-79.794,801.934c72.739,128.664,181.983,227.531,309.452,287.938
		c-261.03-155.827-357.57-486.682-221.305-758.435C1565.144,1517.248,1888.03,1396.705,2169.044,1512.675"/>
	<defs>
		
			<filter id="Adobe_OpacityMaskFilter_00000015352441954366802070000015517480277230575244_" filterUnits="userSpaceOnUse" x="1250.131" y="1215.463" width="1054.073" height="1399.409">
			<feColorMatrix  type="matrix" values="1 0 0 0 0  0 1 0 0 0  0 0 1 0 0  0 0 0 1 0"/>
		</filter>
	</defs>
	
		<mask maskUnits="userSpaceOnUse" x="1250.131" y="1215.463" width="1054.073" height="1399.409" id="SVGID_00000137114118023880956160000016407346848614922636_">
		<g style="filter:url(#Adobe_OpacityMaskFilter_00000015352441954366802070000015517480277230575244_);">
			
				<linearGradient id="SVGID_00000148652061196874090640000006289705770908179352_" gradientUnits="userSpaceOnUse" x1="-1183.4961" y1="6153.7256" x2="-913.1206" y2="4821.8726" gradientTransform="matrix(1 0 0 1 2779.6694 -3346.9951)">
				<stop  offset="0" style="stop-color:#FFFFFF"/>
				<stop  offset="1" style="stop-color:#000000"/>
			</linearGradient>
			
				<rect x="1250.131" y="1215.462" style="fill:url(#SVGID_00000148652061196874090640000006289705770908179352_);" width="1054.073" height="1399.41"/>
		</g>
	</mask>
	
		<path style="mask:url(#SVGID_00000137114118023880956160000016407346848614922636_);fill-rule:evenodd;clip-rule:evenodd;fill:#005B50;" d="
		M1627.328,1470.133c178.741-174.491,440.279-233.92,676.875-153.809c-32.023-20.636-66.016-38.608-101.69-53.598
		c-275.65-106.765-588.655-28.778-781.986,194.839c-193.332,223.616-225.271,544.605-79.794,801.934
		c72.739,128.664,181.983,227.531,309.452,287.938c127.47,60.406,273.167,82.351,418.809,57.174
		c-30.139,1.019-59.951-0.57-89.168-4.606c-49.945-6.9-98.154-20.953-143.292-41.346
		c-179.421-74.502-319.916-225.325-379.262-415.55c-42.901-137.511-39.21-282.196,5.88-413.515
		C1496.25,1633.195,1551.661,1544,1627.328,1470.133"/>
	<g>
		<defs>
			<path id="SVGID_00000021834271274770353090000000001247087131519402_" d="M2218.779,1741.408
				c-431.518-249.138-851.917,122.219-637.816,567.687c54.279,112.935,145.854,199.989,255.57,249.564
				c71.543,32.325,150.8,48.715,232.46,45.952c202.331-41.522,424.531-248.618,409.246-528.842
				C2439.327,1936.618,2347.401,1815.667,2218.779,1741.408"/>
		</defs>
		<clipPath id="SVGID_00000124158427369682068610000007106741464765985708_">
			<use xlink:href="#SVGID_00000021834271274770353090000000001247087131519402_"  style="overflow:visible;"/>
		</clipPath>
		
			<linearGradient id="SVGID_00000033360083630181282110000013688642820657172159_" gradientUnits="userSpaceOnUse" x1="1938.5103" y1="2502.917" x2="1923.424" y2="1681.0402">
			<stop  offset="0" style="stop-color:#FFCE4B"/>
			<stop  offset="1" style="stop-color:#C31656"/>
		</linearGradient>
		
			<rect x="1366.862" y="1492.27" style="clip-path:url(#SVGID_00000124158427369682068610000007106741464765985708_);fill:url(#SVGID_00000033360083630181282110000013688642820657172159_);" width="1126.662" height="1115.104"/>
	</g>
	<defs>
		
			<filter id="Adobe_OpacityMaskFilter_00000045591451769692785290000010170384964362054536_" filterUnits="userSpaceOnUse" x="1524.835" y="1661.245" width="897.987" height="943.405">
			<feColorMatrix  type="matrix" values="1 0 0 0 0  0 1 0 0 0  0 0 1 0 0  0 0 0 1 0"/>
		</filter>
	</defs>
	
		<mask maskUnits="userSpaceOnUse" x="1524.835" y="1661.245" width="897.987" height="943.405" id="SVGID_00000134936931434590226340000010637213567331031465_">
		<g style="filter:url(#Adobe_OpacityMaskFilter_00000045591451769692785290000010170384964362054536_);">
			
				<linearGradient id="SVGID_00000003097510839554717570000016713305157890404261_" gradientUnits="userSpaceOnUse" x1="-1345.4243" y1="5408.2197" x2="-310.7132" y2="5581.5752" gradientTransform="matrix(1 0 0 1 2870.8972 -3350.3899)">
				<stop  offset="0" style="stop-color:#FFFFFF"/>
				<stop  offset="1" style="stop-color:#000000"/>
			</linearGradient>
			
				<rect x="1524.835" y="1661.245" style="fill:url(#SVGID_00000003097510839554717570000016713305157890404261_);" width="897.988" height="943.405"/>
		</g>
	</mask>
	
		<path style="mask:url(#SVGID_00000134936931434590226340000010637213567331031465_);fill-rule:evenodd;clip-rule:evenodd;fill:#860000;" d="
		M1636.116,2184.178c-3.658-222.911,164.245-411.375,386.097-433.377c163.224-16.187,315.511,61.71,400.61,191.344
		c-48.253-81.878-117.35-151.55-202.545-200.737c-431.518-249.138-851.917,122.219-637.816,567.687
		c54.279,112.935,145.854,199.989,255.57,249.564c61.492,27.783,128.682,43.795,198.197,45.99
		C1813.774,2589.941,1639.776,2407.09,1636.116,2184.178"/>
	<defs>
		
			<filter id="Adobe_OpacityMaskFilter_00000105400832224305188180000013919480268455443601_" filterUnits="userSpaceOnUse" x="1749.587" y="1926.982" width="729.4" height="677.93">
			<feColorMatrix  type="matrix" values="1 0 0 0 0  0 1 0 0 0  0 0 1 0 0  0 0 0 1 0"/>
		</filter>
	</defs>
	
		<mask maskUnits="userSpaceOnUse" x="1749.587" y="1926.982" width="729.4" height="677.93" id="SVGID_00000039819674944185450790000006934552692409772980_">
		<g style="filter:url(#Adobe_OpacityMaskFilter_00000105400832224305188180000013919480268455443601_);">
			
				<linearGradient id="SVGID_00000001659788743687473100000017392595691963053212_" gradientUnits="userSpaceOnUse" x1="-1179.1235" y1="6140.6982" x2="-762.1324" y2="5512.0508" gradientTransform="matrix(1 0 0 1 2945.5356 -3350.303)">
				<stop  offset="0" style="stop-color:#FFFFFF"/>
				<stop  offset="1" style="stop-color:#000000"/>
			</linearGradient>
			
				<rect x="1749.587" y="1926.982" style="fill:url(#SVGID_00000001659788743687473100000017392595691963053212_);" width="729.4" height="677.93"/>
		</g>
	</mask>
	
		<path style="mask:url(#SVGID_00000039819674944185450790000006934552692409772980_);fill-rule:evenodd;clip-rule:evenodd;fill:#FFF000;" d="
		M2374.936,2048.927c-99.481,247.666-324.446,420.973-586.6,455.792c67.664,57.101,153.408,93.683,247.895,99.93
		c-69.515-2.196-136.705-18.208-198.197-45.99c-30.581-13.818-59.753-30.548-87.1-49.938c-0.449,0.036-0.898,0.073-1.346,0.109
		c27.303,19.344,56.423,36.037,86.947,49.83c71.543,32.325,150.8,48.715,232.46,45.952
		c202.331-41.522,424.531-248.618,409.246-528.842c-14.744-52.725-37.1-102.837-66.179-148.787
		C2403.325,1968.191,2390.977,2008.989,2374.936,2048.927"/>
	<g>
		<defs>
			<path id="SVGID_00000069357935973162649390000008620257012549886382_" d="M1384.698,806.325
				c10.727,121.733,73.369,232.945,171.913,305.212c98.548,72.267,223.447,98.581,342.773,72.222
				C1903.541,919.186,1731.982,793.372,1384.698,806.325"/>
		</defs>
		<clipPath id="SVGID_00000141430270627117900570000001510024736441167254_">
			<use xlink:href="#SVGID_00000069357935973162649390000008620257012549886382_"  style="overflow:visible;"/>
		</clipPath>
		
			<linearGradient id="SVGID_00000071541730437883289110000004805965480296994239_" gradientUnits="userSpaceOnUse" x1="1481.3619" y1="1151.4897" x2="1793.2017" y2="864.5826">
			<stop  offset="0" style="stop-color:#007B70"/>
			<stop  offset="1" style="stop-color:#AFF022"/>
		</linearGradient>
		
			<rect x="1384.698" y="793.372" style="clip-path:url(#SVGID_00000141430270627117900570000001510024736441167254_);fill:url(#SVGID_00000071541730437883289110000004805965480296994239_);" width="518.843" height="416.746"/>
	</g>
	<g>
		<defs>
			<path id="SVGID_00000159454948162722015280000001365942823865240735_" d="M2189.613,992.776
				c-5.364,60.867-36.684,116.474-85.956,152.607c-49.274,36.133-111.724,49.29-171.386,36.111
				C1930.192,1049.208,2015.972,986.301,2189.613,992.776"/>
		</defs>
		<clipPath id="SVGID_00000073720648335169834810000000448468810587984307_">
			<use xlink:href="#SVGID_00000159454948162722015280000001365942823865240735_"  style="overflow:visible;"/>
		</clipPath>
		
			<linearGradient id="SVGID_00000052821414887564422900000017355073753074472633_" gradientUnits="userSpaceOnUse" x1="2141.2917" y1="1165.3694" x2="1985.3727" y2="1021.9155">
			<stop  offset="0" style="stop-color:#007B70"/>
			<stop  offset="1" style="stop-color:#AFF022"/>
		</linearGradient>
		
			<rect x="1930.192" y="986.301" style="clip-path:url(#SVGID_00000073720648335169834810000000448468810587984307_);fill:url(#SVGID_00000052821414887564422900000017355073753074472633_);" width="259.421" height="208.372"/>
	</g>
</g>
</svg>
